<?xml version="1.0" standalone="no"?>
<!DOCTYPE svg PUBLIC "-//W3C//DTD SVG 20010904//EN"
 "http://www.w3.org/TR/2001/REC-SVG-20010904/DTD/svg10.dtd">
<svg version="1.0" xmlns="http://www.w3.org/2000/svg"
 width="512.000000pt" height="512.000000pt" viewBox="0 0 512.000000 512.000000"
 preserveAspectRatio="xMidYMid meet">
<metadata>
Created by potrace 1.11, written by Peter Selinger 2001-2013
</metadata>
<g transform="translate(0.000000,512.000000) scale(0.100000,-0.100000)"
fill="#000000" stroke="none">
<path d="M4225 3614 c-192 -40 -349 -150 -443 -309 -177 -302 -112 -695 151
-913 190 -156 442 -185 667 -76 109 53 232 179 288 294 23 47 50 114 59 150
23 88 23 263 0 350 -25 92 -86 215 -143 285 -84 101 -235 191 -368 216 -48 9
-172 11 -211 3z m212 -360 c141 -70 216 -255 168 -420 -85 -298 -414 -331
-544 -54 -23 48 -26 68 -26 155 0 87 3 107 26 156 57 120 153 189 264 189 45
0 74 -7 112 -26z"/>
<path d="M90 2510 l0 -1080 170 0 170 0 2 762 3 762 360 -467 360 -468 100 3
100 3 360 468 360 469 3 -766 2 -766 170 0 170 0 0 1080 0 1080 -145 0 -144 0
-439 -564 -439 -565 -439 565 -439 564 -142 0 -143 0 0 -1080z"/>
<path d="M3580 1590 l0 -160 745 0 745 0 0 160 0 160 -745 0 -745 0 0 -160z"/>
</g>
</svg>
