
<!-- Generator: Adobe Illustrator 16.0.4, SVG Export Plug-In . SVG Version: 6.00 Build 0)  -->
<!DOCTYPE svg PUBLIC "-//W3C//DTD SVG 1.1//EN" "http://www.w3.org/Graphics/SVG/1.1/DTD/svg11.dtd">
<svg width="45.566px" height="19.691px" viewBox="0 0 45.566 19.691" enable-background="new 0 0 45.566 19.691" xml:space="preserve">
<g>
	<g>
		<polygon points="10.622,10.367 2.557,-0.001 0,-0.001 0,19.691 2.991,19.691 2.991,5.459 9.798,14.304
			11.446,14.304 18.252,5.459 18.252,19.691 21.247,19.691 21.247,-0.001 18.685,-0.001 		"/>
	</g>
	<g>
		<path d="M34.51,10.137c0.498,0.589,1.112,1.075,1.822,1.44c0.735,0.381,1.557,0.576,2.438,0.576
			c0.848,0,1.645-0.178,2.367-0.529c0.707-0.34,1.334-0.811,1.855-1.393c0.518-0.574,0.924-1.239,1.211-1.973
			c0.292-0.74,0.44-1.529,0.44-2.348c0-0.778-0.139-1.545-0.41-2.271c-0.275-0.745-0.67-1.415-1.176-1.993
			c-0.508-0.575-1.125-1.05-1.836-1.409C39.8-0.483,37.893-0.5,36.427,0.209c-0.707,0.344-1.326,0.809-1.844,1.382
			c-0.509,0.566-0.914,1.229-1.205,1.968c-0.289,0.746-0.438,1.536-0.438,2.354c0,0.766,0.139,1.522,0.411,2.249
			C33.629,8.895,34.016,9.56,34.51,10.137z M37.729,8.908c-0.344-0.173-0.643-0.407-0.893-0.7c-0.262-0.299-0.466-0.648-0.611-1.043
			c-0.146-0.397-0.223-0.818-0.223-1.25c0-0.402,0.074-0.811,0.217-1.211c0.141-0.392,0.338-0.747,0.596-1.052
			c0.248-0.299,0.549-0.541,0.893-0.722c0.31-0.163,0.673-0.246,1.081-0.246c0.391,0,0.749,0.082,1.069,0.245
			c0.341,0.17,0.639,0.401,0.89,0.692c0.26,0.303,0.465,0.651,0.604,1.042c0.145,0.399,0.22,0.82,0.22,1.251
			c0,0.406-0.073,0.813-0.22,1.213c-0.141,0.396-0.342,0.753-0.596,1.062c-0.24,0.292-0.537,0.533-0.875,0.711
			C39.264,9.219,38.358,9.225,37.729,8.908z"/>
	</g>
	<g>
		<rect x="32.02" y="16.822"  width="13.546" height="2.869"/>
	</g>
</g>
</svg>
