<?xml version="1.0" encoding="utf-8"?>
<!-- Generator: Adobe Illustrator 16.0.0, SVG Export Plug-In . SVG Version: 6.00 Build 0)  -->
<!DOCTYPE svg PUBLIC "-//W3C//DTD SVG 1.1//EN" "http://www.w3.org/Graphics/SVG/1.1/DTD/svg11.dtd">
<svg version="1.1" id="Livello_1" xmlns="http://www.w3.org/2000/svg" xmlns:xlink="http://www.w3.org/1999/xlink" x="0px" y="0px"
	 width="406.665px" height="63.379px" viewBox="0 0 850.39 85.04" enable-background="new 0 0 850.39 85.04" xml:space="preserve">
<g>
	<polygon fill="none" points="619.006,46.394 631.275,46.394 625.183,31.765 	"/>
	<path fill="none" d="M562.461,41.649c0.617-0.746,1.1-1.636,1.437-2.645c0.341-1.017,0.513-2.072,0.513-3.14
		c0-1.063-0.201-2.106-0.598-3.1c-0.389-1.004-0.932-1.898-1.619-2.662c-0.678-0.758-1.443-1.346-2.34-1.797
		c-0.829-0.43-1.709-0.638-2.693-0.638h-9.908v16.442h10.307c1.02,0,1.895-0.208,2.677-0.635
		C561.111,43.011,561.838,42.413,562.461,41.649z"/>
	<path fill="none" d="M243.016,41.659c0.62-0.759,1.104-1.652,1.441-2.656c0.341-1.023,0.514-2.079,0.514-3.138
		c0-1.071-0.2-2.112-0.594-3.094c-0.396-1.007-0.943-1.906-1.626-2.674c-0.648-0.727-1.438-1.333-2.347-1.801
		c-0.812-0.417-1.719-0.628-2.696-0.628h-9.906v16.442h10.32c0.996,0,1.894-0.214,2.669-0.637
		C241.675,43.008,242.401,42.414,243.016,41.659z"/>
	<polygon fill="#FFFFFF" points="70.565,21.488 65.352,21.488 65.352,66.08 71.329,66.08 71.329,32.248 87.764,53.616 
		91.107,53.616 107.56,32.245 107.56,66.08 113.526,66.08 113.526,21.488 108.318,21.488 89.441,45.754 	"/>
	<path fill="#FFFFFF" d="M89.441,44.939L70.81,20.988h-5.958V66.58h6.977V33.719l15.688,20.397h3.836l15.706-20.402V66.58h6.966
		V20.988h-5.952L89.441,44.939z M113.526,21.488V66.08h-5.966V32.245L91.107,53.616h-3.344L71.329,32.248V66.08h-5.977V21.488h5.213
		l18.876,24.266l18.876-24.266H113.526z"/>
	<polygon fill="#FFFFFF" points="160.597,46.083 179.469,46.083 179.469,40.52 160.597,40.52 160.597,27.169 182.516,27.169 
		182.516,21.485 154.625,21.485 154.625,66.083 183.034,66.083 183.034,60.39 160.597,60.39 	"/>
	<path fill="#FFFFFF" d="M161.097,46.583h18.872V40.02h-18.872V27.669h21.918v-6.684h-28.891v45.598h29.409V59.89h-22.437V46.583z
		 M183.034,66.083h-28.409V21.485h27.891v5.684h-21.918V40.52h18.872v5.563h-18.872V60.39h22.437V66.083z"/>
	<path fill="#FFFFFF" d="M242.842,49.222c0.729-0.274,1.433-0.616,2.094-1.017c1.377-0.853,2.558-1.923,3.507-3.182
		c0.977-1.29,1.722-2.725,2.214-4.264c0.521-1.559,0.784-3.204,0.784-4.895c0-1.763-0.34-3.514-1.01-5.204
		c-0.652-1.677-1.587-3.221-2.782-4.591c-1.192-1.371-2.634-2.483-4.286-3.308c-1.68-0.848-3.543-1.277-5.539-1.277h-16.498v44.598
		h5.976V50.356h8.89l10.076,15.727h7.001l-10.715-16.752L242.842,49.222z M238.122,44.611h-10.82V27.169h10.406
		c1.058,0,2.042,0.229,2.925,0.683c0.964,0.497,1.803,1.141,2.491,1.914c0.723,0.812,1.301,1.761,1.718,2.821
		c0.417,1.04,0.629,2.144,0.629,3.278c0,1.112-0.182,2.222-0.54,3.296c-0.356,1.063-0.87,2.009-1.528,2.813
		c-0.656,0.808-1.434,1.443-2.375,1.94C240.181,44.377,239.203,44.611,238.122,44.611z"/>
	<path fill="#FFFFFF" d="M245.197,48.632c1.433-0.887,2.659-1.999,3.645-3.307c1.011-1.336,1.782-2.82,2.291-4.41
		c0.536-1.606,0.808-3.306,0.808-5.05c0-1.826-0.352-3.639-1.045-5.387c-0.672-1.729-1.638-3.322-2.87-4.736
		c-1.235-1.421-2.729-2.573-4.439-3.427c-1.75-0.883-3.688-1.33-5.763-1.33h-16.998v45.598h6.976V50.856h8.116l10.076,15.727h8.188
		l-10.876-17.005C243.961,49.313,244.595,48.996,245.197,48.632z M246.268,66.083l-10.076-15.727h-8.89v15.727h-5.976V21.485h16.498
		c1.996,0,3.858,0.43,5.539,1.277c1.652,0.824,3.094,1.937,4.286,3.308c1.194,1.37,2.13,2.914,2.782,4.591
		c0.67,1.69,1.01,3.441,1.01,5.204c0,1.69-0.263,3.336-0.784,4.895c-0.492,1.539-1.237,2.974-2.214,4.264
		c-0.949,1.259-2.129,2.329-3.507,3.182c-0.661,0.4-1.365,0.742-2.094,1.017l-0.289,0.109l10.715,16.752H246.268z"/>
	<path fill="#FFFFFF" d="M243.403,41.975c0.658-0.805,1.172-1.751,1.528-2.813c0.358-1.074,0.54-2.184,0.54-3.296
		c0-1.135-0.212-2.238-0.629-3.278c-0.417-1.061-0.995-2.01-1.718-2.821c-0.688-0.773-1.527-1.417-2.491-1.914
		c-0.883-0.453-1.867-0.683-2.925-0.683h-10.406v17.442h10.82c1.081,0,2.059-0.234,2.905-0.696
		C241.969,43.418,242.747,42.782,243.403,41.975z M238.122,44.111h-10.32V27.669h9.906c0.977,0,1.884,0.211,2.696,0.628
		c0.909,0.468,1.699,1.074,2.347,1.801c0.683,0.768,1.23,1.667,1.626,2.674c0.394,0.981,0.594,2.022,0.594,3.094
		c0,1.059-0.173,2.114-0.514,3.138c-0.337,1.004-0.822,1.897-1.441,2.656c-0.614,0.755-1.341,1.349-2.225,1.815
		C240.016,43.897,239.118,44.111,238.122,44.111z"/>
	<path fill="#FFFFFF" d="M562.275,49.226c0.732-0.274,1.44-0.617,2.104-1.021c1.361-0.84,2.54-1.91,3.5-3.179
		c0.946-1.236,1.698-2.679,2.235-4.289c0.511-1.593,0.771-3.232,0.771-4.872c0-1.74-0.34-3.493-1.012-5.21
		c-0.674-1.699-1.611-3.243-2.785-4.588c-1.219-1.388-2.66-2.499-4.28-3.303c-1.67-0.85-3.531-1.279-5.534-1.279h-16.498v44.598
		h5.977V50.356h8.885l10.064,15.727h7l-10.715-16.749L562.275,49.226z M557.559,44.611h-10.807V27.169h10.408
		c1.066,0,2.021,0.227,2.92,0.692c0.951,0.479,1.766,1.104,2.486,1.908c0.727,0.809,1.303,1.755,1.711,2.813
		c0.42,1.05,0.633,2.154,0.633,3.282c0,1.121-0.181,2.231-0.539,3.298c-0.355,1.067-0.869,2.011-1.523,2.804
		c-0.665,0.815-1.442,1.453-2.375,1.95C559.617,44.384,558.664,44.611,557.559,44.611z"/>
	<path fill="#FFFFFF" d="M564.64,48.632c1.417-0.874,2.641-1.985,3.637-3.303c0.979-1.279,1.757-2.771,2.313-4.437
		c0.527-1.645,0.795-3.336,0.795-5.027c0-1.803-0.352-3.617-1.047-5.393c-0.695-1.754-1.662-3.347-2.873-4.734
		c-1.264-1.438-2.756-2.589-4.434-3.42c-1.738-0.885-3.676-1.333-5.758-1.333h-16.998v45.598h6.977V50.856h8.111l10.064,15.727
		h8.188l-10.877-17.001C563.398,49.317,564.036,48.999,564.64,48.632z M565.701,66.083l-10.064-15.727h-8.885v15.727h-5.977V21.485
		h16.498c2.003,0,3.864,0.43,5.534,1.279c1.62,0.804,3.062,1.915,4.28,3.303c1.174,1.345,2.111,2.889,2.785,4.588
		c0.672,1.717,1.012,3.47,1.012,5.21c0,1.64-0.26,3.279-0.771,4.872c-0.537,1.61-1.289,3.053-2.235,4.289
		c-0.96,1.269-2.139,2.339-3.5,3.179c-0.663,0.403-1.371,0.746-2.104,1.021l-0.289,0.108l10.715,16.749H565.701z"/>
	<path fill="#FFFFFF" d="M562.848,41.967c0.654-0.793,1.168-1.736,1.523-2.804c0.358-1.066,0.539-2.177,0.539-3.298
		c0-1.128-0.213-2.232-0.633-3.282c-0.408-1.059-0.984-2.005-1.711-2.813c-0.721-0.805-1.535-1.43-2.486-1.908
		c-0.898-0.466-1.854-0.692-2.92-0.692h-10.408v17.442h10.807c1.105,0,2.059-0.228,2.914-0.694
		C561.405,43.42,562.183,42.782,562.848,41.967z M557.559,44.111h-10.307V27.669h9.908c0.984,0,1.864,0.208,2.693,0.638
		c0.896,0.451,1.662,1.039,2.34,1.797c0.688,0.764,1.23,1.658,1.619,2.662c0.396,0.993,0.598,2.036,0.598,3.1
		c0,1.067-0.172,2.123-0.513,3.14c-0.337,1.009-0.819,1.898-1.437,2.645c-0.623,0.764-1.35,1.361-2.226,1.827
		C559.453,43.903,558.578,44.111,557.559,44.111z"/>
	<rect x="290.264" y="21.552" fill="#FFFFFF" width="5.975" height="44.531"/>
	<path fill="#FFFFFF" d="M289.764,66.583h6.975V21.052h-6.975V66.583z M290.264,21.552h5.975v44.531h-5.975V21.552z"/>
	<path fill="#FFFFFF" d="M495.789,56.624c-0.969,0.94-2.01,1.716-3.095,2.307c-1.091,0.591-2.247,1.036-3.44,1.324
		c-3.336,0.8-6.557,0.477-9.387-0.94c-1.838-0.921-3.456-2.171-4.812-3.715c-1.374-1.588-2.466-3.426-3.244-5.462
		c-0.784-2.035-1.182-4.219-1.182-6.49c0-2.027,0.339-4.065,1.007-6.059c0.651-1.979,1.629-3.78,2.903-5.354
		c1.253-1.552,2.827-2.831,4.681-3.803c2.729-1.414,6.309-1.808,9.697-1.063c1.105,0.245,2.152,0.631,3.199,1.178
		c1.021,0.534,2.001,1.249,2.912,2.124c0.902,0.868,1.662,1.948,2.26,3.209l0.696,1.435l5.062-2.88l-0.592-1.252
		c-1.371-2.901-3.503-5.304-6.334-7.139c-2.863-1.852-6.33-2.791-10.305-2.791c-3.342,0-6.381,0.672-9.033,1.997
		c-2.613,1.313-4.859,3.042-6.674,5.142c-1.795,2.084-3.182,4.481-4.119,7.125c-0.926,2.623-1.395,5.299-1.395,7.954
		c0,2.839,0.513,5.648,1.525,8.351c0.999,2.691,2.438,5.152,4.277,7.316c1.837,2.148,4.055,3.912,6.59,5.243
		c3.967,2.102,8.643,2.646,13.791,1.39c1.8-0.447,3.503-1.117,5.061-1.989c1.604-0.877,3.072-1.989,4.365-3.309
		c1.316-1.345,2.373-2.894,3.141-4.604l0.594-1.322l-5.145-2.504l-0.672,1.319C497.492,54.623,496.707,55.722,495.789,56.624z"/>
	<path fill="#FFFFFF" d="M497.677,53.136c-0.606,1.215-1.36,2.269-2.236,3.13c-0.937,0.908-1.94,1.657-2.985,2.226
		c-1.051,0.57-2.168,1-3.317,1.277c-3.222,0.77-6.323,0.463-9.047-0.901c-1.779-0.892-3.347-2.103-4.658-3.597
		c-1.335-1.542-2.396-3.329-3.154-5.312c-0.763-1.979-1.148-4.102-1.148-6.312c0-1.973,0.33-3.958,0.981-5.901
		c0.633-1.921,1.58-3.67,2.817-5.197c1.21-1.499,2.731-2.734,4.524-3.674c2.623-1.36,6.084-1.738,9.357-1.019
		c1.062,0.235,2.067,0.606,3.075,1.133c0.979,0.512,1.92,1.199,2.796,2.042c0.859,0.825,1.584,1.855,2.156,3.064l0.931,1.917
		l5.927-3.374l-0.787-1.67c-1.413-2.987-3.605-5.459-6.515-7.346c-2.946-1.905-6.505-2.871-10.577-2.871
		c-3.42,0-6.535,0.689-9.257,2.05c-2.673,1.342-4.971,3.112-6.829,5.263c-1.836,2.131-3.253,4.582-4.212,7.284
		c-0.944,2.677-1.423,5.409-1.423,8.121c0,2.898,0.523,5.768,1.557,8.525c1.02,2.745,2.488,5.257,4.366,7.466
		c1.878,2.197,4.146,4.001,6.735,5.361c2.646,1.401,5.6,2.112,8.775,2.112c1.715,0,3.521-0.229,5.369-0.68
		c1.845-0.458,3.59-1.145,5.183-2.037c1.646-0.899,3.153-2.042,4.481-3.396c1.357-1.387,2.447-2.984,3.239-4.749l0.792-1.766
		l-6.021-2.93L497.677,53.136z M503.939,54.545l-0.594,1.322c-0.768,1.711-1.824,3.26-3.141,4.604
		c-1.293,1.319-2.762,2.432-4.365,3.309c-1.558,0.872-3.261,1.542-5.061,1.989c-5.148,1.257-9.824,0.712-13.791-1.39
		c-2.535-1.331-4.753-3.095-6.59-5.243c-1.839-2.164-3.278-4.625-4.277-7.316c-1.013-2.702-1.525-5.512-1.525-8.351
		c0-2.655,0.469-5.331,1.395-7.954c0.938-2.644,2.324-5.041,4.119-7.125c1.814-2.1,4.061-3.829,6.674-5.142
		c2.652-1.325,5.691-1.997,9.033-1.997c3.975,0,7.441,0.939,10.305,2.791c2.831,1.835,4.963,4.237,6.334,7.139l0.592,1.252
		l-5.062,2.88l-0.696-1.435c-0.598-1.261-1.357-2.341-2.26-3.209c-0.911-0.875-1.891-1.59-2.912-2.124
		c-1.047-0.547-2.094-0.933-3.199-1.178c-3.389-0.744-6.969-0.351-9.697,1.063c-1.854,0.972-3.428,2.251-4.681,3.803
		c-1.274,1.574-2.252,3.376-2.903,5.354c-0.668,1.993-1.007,4.031-1.007,6.059c0,2.271,0.397,4.455,1.182,6.49
		c0.778,2.036,1.87,3.874,3.244,5.462c1.355,1.544,2.974,2.794,4.812,3.715c2.83,1.417,6.051,1.74,9.387,0.94
		c1.193-0.288,2.35-0.733,3.44-1.324c1.085-0.591,2.126-1.366,3.095-2.307c0.918-0.902,1.703-2.001,2.334-3.264l0.672-1.319
		L503.939,54.545z"/>
	<path fill="#FFFFFF" d="M622.972,21.485l-18.956,44.598h6.486l5.726-13.733h17.874l5.795,13.733h6.457l-18.879-44.598H622.972z
		 M618.252,46.894l6.934-16.422l6.84,16.422H618.252z"/>
	<path fill="#FFFFFF" d="M622.641,20.985L603.26,66.583h7.576l5.725-13.733h17.209l5.795,13.733h7.543l-19.303-45.598H622.641z
		 M639.896,66.083l-5.795-13.733h-17.874l-5.726,13.733h-6.486l18.956-44.598h4.503l18.879,44.598H639.896z"/>
	<path fill="#FFFFFF" d="M618.252,46.894h13.773l-6.84-16.422L618.252,46.894z M619.006,46.394l6.177-14.629l6.093,14.629H619.006z"
		/>
	<path fill="#FFFFFF" d="M708.936,56.619c-0.96,0.947-1.999,1.725-3.087,2.31c-1.127,0.608-2.257,1.042-3.454,1.326
		c-3.301,0.805-6.556,0.478-9.37-0.942c-1.851-0.919-3.471-2.17-4.812-3.717c-1.37-1.568-2.463-3.405-3.246-5.458
		c-0.791-2.061-1.193-4.244-1.193-6.49c0-2.007,0.34-4.044,1.01-6.056c0.655-1.973,1.63-3.772,2.897-5.352
		c1.253-1.547,2.833-2.827,4.694-3.809c2.716-1.421,6.289-1.814,9.688-1.063c1.115,0.248,2.193,0.643,3.203,1.172
		c1.029,0.548,2.01,1.263,2.916,2.128c0.877,0.848,1.641,1.93,2.273,3.217l0.704,1.43l5.036-2.88l-0.582-1.254
		c-1.374-2.902-3.508-5.304-6.342-7.138c-2.857-1.852-6.319-2.791-10.291-2.791c-3.34,0-6.389,0.673-9.061,1.999
		c-2.625,1.331-4.869,3.062-6.668,5.142c-1.792,2.093-3.174,4.488-4.108,7.12c-0.925,2.601-1.394,5.277-1.394,7.957
		c0,2.82,0.514,5.631,1.524,8.353c1.013,2.712,2.451,5.172,4.275,7.311c1.824,2.146,4.04,3.911,6.589,5.249
		c4.006,2.106,8.692,2.637,13.787,1.388c1.758-0.433,3.465-1.102,5.075-1.99c1.596-0.88,3.065-1.996,4.37-3.319
		c1.316-1.355,2.369-2.902,3.129-4.597l0.584-1.32l-5.129-2.504l-0.664,1.317C710.646,54.629,709.854,55.727,708.936,56.619z"/>
	<path fill="#FFFFFF" d="M710.846,53.131c-0.62,1.223-1.38,2.275-2.26,3.131c-0.928,0.915-1.928,1.664-2.975,2.228
		c-1.088,0.587-2.178,1.006-3.334,1.279c-3.188,0.777-6.318,0.465-9.029-0.903c-1.793-0.89-3.359-2.101-4.658-3.598
		c-1.332-1.524-2.393-3.311-3.156-5.309c-0.77-2.004-1.16-4.127-1.16-6.312c0-1.952,0.332-3.937,0.984-5.897
		c0.637-1.916,1.582-3.665,2.813-5.196c1.209-1.492,2.736-2.73,4.537-3.679c2.611-1.366,6.063-1.744,9.348-1.019
		c1.071,0.238,2.107,0.617,3.078,1.126c0.986,0.525,1.93,1.214,2.801,2.046c0.835,0.807,1.565,1.842,2.172,3.077l0.939,1.906
		l5.898-3.372l-0.778-1.672c-1.415-2.988-3.609-5.46-6.522-7.345c-2.939-1.905-6.492-2.871-10.563-2.871
		c-3.418,0-6.541,0.69-9.284,2.053c-2.687,1.36-4.981,3.131-6.823,5.262c-1.832,2.14-3.246,4.589-4.201,7.278
		c-0.943,2.654-1.422,5.389-1.422,8.125c0,2.88,0.523,5.749,1.556,8.527c1.034,2.767,2.501,5.277,4.363,7.46
		c1.866,2.194,4.132,4,6.737,5.368c2.662,1.399,5.614,2.109,8.773,2.109c1.721,0,3.525-0.229,5.365-0.679
		c1.801-0.443,3.55-1.129,5.197-2.039c1.638-0.902,3.146-2.048,4.486-3.407c1.358-1.398,2.443-2.994,3.229-4.742l0.779-1.763
		l-6.006-2.932L710.846,53.131z M717.084,54.543l-0.584,1.32c-0.76,1.694-1.813,3.241-3.129,4.597
		c-1.305,1.323-2.774,2.439-4.37,3.319c-1.61,0.889-3.317,1.558-5.075,1.99c-5.095,1.249-9.781,0.719-13.787-1.388
		c-2.549-1.338-4.765-3.104-6.589-5.249c-1.824-2.139-3.263-4.599-4.275-7.311c-1.011-2.722-1.524-5.532-1.524-8.353
		c0-2.68,0.469-5.356,1.394-7.957c0.935-2.632,2.316-5.027,4.108-7.12c1.799-2.08,4.043-3.811,6.668-5.142
		c2.672-1.326,5.721-1.999,9.061-1.999c3.972,0,7.434,0.939,10.291,2.791c2.834,1.834,4.968,4.235,6.342,7.138l0.582,1.254
		l-5.036,2.88l-0.704-1.43c-0.633-1.287-1.396-2.369-2.273-3.217c-0.906-0.865-1.887-1.58-2.916-2.128
		c-1.01-0.529-2.088-0.924-3.203-1.172c-3.398-0.751-6.972-0.357-9.688,1.063c-1.861,0.981-3.441,2.262-4.694,3.809
		c-1.268,1.579-2.242,3.379-2.897,5.352c-0.67,2.012-1.01,4.049-1.01,6.056c0,2.246,0.402,4.43,1.193,6.49
		c0.783,2.053,1.876,3.89,3.246,5.458c1.341,1.547,2.961,2.798,4.812,3.717c2.814,1.42,6.069,1.747,9.37,0.942
		c1.197-0.284,2.327-0.718,3.454-1.326c1.088-0.585,2.127-1.362,3.087-2.31c0.918-0.893,1.711-1.99,2.355-3.263l0.664-1.317
		L717.084,54.543z"/>
	<polygon fill="#FFFFFF" points="778.557,21.485 764.799,43.203 751.098,21.485 744.223,21.485 761.837,49.179 761.837,66.083 
		767.754,66.083 767.754,49.294 767.793,49.232 785.361,21.485 	"/>
	<path fill="#FFFFFF" d="M778.281,20.985l-13.482,21.282l-13.353-21.166l-0.073-0.116h-8.061l18.024,28.34v17.258h6.917V49.438
		l18.016-28.453H778.281z M767.754,49.294v16.789h-5.917V49.179l-17.614-27.693h6.875l13.701,21.718l13.758-21.718h6.805
		l-17.568,27.747L767.754,49.294z"/>
	<polygon fill="#FFFFFF" points="357.37,66.083 363.34,66.083 363.34,21.485 333.011,21.485 333.011,27.169 357.37,27.169 	"/>
	<path fill="#FFFFFF" d="M332.511,27.669h24.359v38.914h6.97V20.985h-31.329V27.669z M333.011,21.485h30.329v44.598h-5.97V27.169
		h-24.359V21.485z"/>
	<rect x="401.43" y="60.39" fill="#FFFFFF" width="27.357" height="5.693"/>
	<path fill="#FFFFFF" d="M400.93,66.583h28.357V59.89H400.93V66.583z M401.43,60.39h27.357v5.693H401.43V60.39z"/>
	<path fill="#FFFFFF" d="M429.021,28.407c-0.951-3.73-4.074-6.336-7.594-6.336c-2.674,0-5.076,1.533-6.763,4.316l-0.214,0.353
		l-0.214-0.353c-1.686-2.783-4.087-4.316-6.76-4.316c-3.521,0-6.644,2.605-7.595,6.337c-0.641,2.514-1.477,11.384,14.569,20.184
		C430.498,39.792,429.662,30.921,429.021,28.407z"/>
	<path fill="#FFFFFF" d="M421.426,21.571c-2.743,0-5.208,1.494-6.977,4.216c-1.768-2.722-4.231-4.216-6.974-4.216
		c-3.749,0-7.071,2.761-8.08,6.713c-0.665,2.608-1.554,11.818,14.934,20.813l0.12,0.065l0.12-0.065
		c16.49-8.994,15.601-18.205,14.937-20.813C428.498,24.332,425.175,21.571,421.426,21.571z M414.449,48.592
		c-16.046-8.8-15.21-17.67-14.569-20.184c0.951-3.731,4.074-6.337,7.595-6.337c2.673,0,5.074,1.533,6.76,4.316l0.214,0.353
		l0.214-0.353c1.688-2.783,4.089-4.316,6.763-4.316c3.521,0,6.643,2.605,7.594,6.336C429.662,30.921,430.498,39.792,414.449,48.592z
		"/>
</g>
</svg>
