<?xml version="1.0" encoding="utf-8"?>
<!-- Generator: Adobe Illustrator 19.0.0, SVG Export Plug-In . SVG Version: 6.00 Build 0)  -->
<svg version="1.1" id="Layer_1" xmlns="http://www.w3.org/2000/svg" xmlns:xlink="http://www.w3.org/1999/xlink" x="0px" y="0px"
	 viewBox="-255 378.5 84.4 84.4" style="enable-background:new -255 378.5 84.4 84.4;" xml:space="preserve">
<style type="text/css">
	.st0{fill:#FFFFFF;}
</style>
<g>
	<g>
		<polygon class="st0" points="-224.5,421.4 -232.6,411 -235.1,411 -235.1,430.7 -232.1,430.7 -232.1,416.4 -225.3,425.3 
			-223.7,425.3 -216.9,416.4 -216.9,430.7 -213.9,430.7 -213.9,411 -216.5,411 		"/>
	</g>
	<g>
		<path class="st0" d="M-200.6,421.1c0.5,0.6,1.1,1.1,1.8,1.4c0.7,0.4,1.6,0.6,2.4,0.6c0.8,0,1.6-0.2,2.4-0.5
			c0.7-0.3,1.3-0.8,1.9-1.4c0.5-0.6,0.9-1.2,1.2-2c0.3-0.7,0.4-1.5,0.4-2.3c0-0.8-0.1-1.5-0.4-2.3c-0.3-0.7-0.7-1.4-1.2-2
			c-0.5-0.6-1.1-1.1-1.8-1.4c-1.4-0.7-3.3-0.7-4.8,0c-0.7,0.3-1.3,0.8-1.8,1.4c-0.5,0.6-0.9,1.2-1.2,2c-0.3,0.7-0.4,1.5-0.4,2.4
			c0,0.8,0.1,1.5,0.4,2.2C-201.5,419.9-201.1,420.5-200.6,421.1z M-197.4,419.9c-0.3-0.2-0.6-0.4-0.9-0.7c-0.3-0.3-0.5-0.6-0.6-1
			c-0.1-0.4-0.2-0.8-0.2-1.2c0-0.4,0.1-0.8,0.2-1.2c0.1-0.4,0.3-0.7,0.6-1.1c0.2-0.3,0.5-0.5,0.9-0.7c0.3-0.2,0.7-0.2,1.1-0.2
			c0.4,0,0.7,0.1,1.1,0.2c0.3,0.2,0.6,0.4,0.9,0.7c0.3,0.3,0.5,0.7,0.6,1c0.1,0.4,0.2,0.8,0.2,1.3c0,0.4-0.1,0.8-0.2,1.2
			c-0.1,0.4-0.3,0.8-0.6,1.1c-0.2,0.3-0.5,0.5-0.9,0.7C-195.9,420.2-196.8,420.2-197.4,419.9z"/>
	</g>
	<g>
		<rect x="-203.1" y="427.8" class="st0" width="13.5" height="2.9"/>
	</g>
</g>
</svg>
