<?xml version="1.0" encoding="utf-8"?>
<!-- Generator: Adobe Illustrator 16.0.4, SVG Export Plug-In . SVG Version: 6.00 Build 0)  -->
<!DOCTYPE svg PUBLIC "-//W3C//DTD SVG 1.1//EN" "http://www.w3.org/Graphics/SVG/1.1/DTD/svg11.dtd">
<svg version="1.1" id="Layer_1" xmlns="http://www.w3.org/2000/svg" xmlns:xlink="http://www.w3.org/1999/xlink" x="0px" y="0px"
	 width="406.665px" height="63.379px" viewBox="0 0 406.665 63.379" enable-background="new 0 0 406.665 63.379"
	 xml:space="preserve">
<g>
	<polygon fill="#FFFFFF" points="52.583,32.523 44.126,21.651 41.77,21.651 41.77,41.672 44.472,41.672 44.472,26.53 51.823,36.081 
		53.335,36.081 60.69,26.526 60.69,41.672 63.393,41.672 63.393,21.651 61.036,21.651 	"/>
	<polygon fill="#FFFFFF" points="84.494,32.706 92.956,32.706 92.956,30.184 84.494,30.184 84.494,24.225 94.325,24.225 
		94.325,21.651 81.793,21.651 81.793,41.672 94.557,41.672 94.557,39.093 84.494,39.093 	"/>
	<path fill="#FFFFFF" d="M122.296,33.656c0.616-0.376,1.148-0.857,1.58-1.43c0.438-0.577,0.772-1.224,0.994-1.917
		c0.231-0.68,0.349-1.419,0.349-2.198c0-0.803-0.151-1.59-0.449-2.336c-0.294-0.756-0.714-1.45-1.247-2.062
		c-0.534-0.614-1.184-1.114-1.928-1.486c-0.752-0.381-1.589-0.575-2.488-0.575h-7.408v20.021h2.702v-7.05h3.965l4.518,7.05h3.173
		l-4.813-7.516C121.612,34.027,121.966,33.859,122.296,33.656z M114.4,24.225h4.654c0.471,0,0.909,0.104,1.306,0.311
		c0.422,0.211,0.797,0.497,1.113,0.849c0.324,0.37,0.583,0.793,0.768,1.26c0.186,0.462,0.279,0.956,0.279,1.466
		c0,0.491-0.082,0.988-0.243,1.474c-0.162,0.486-0.391,0.908-0.679,1.256c-0.293,0.361-0.64,0.645-1.063,0.868
		c-0.378,0.208-0.813,0.313-1.294,0.313H114.4V24.225z"/>
	<path fill="#FFFFFF" d="M265.519,33.655c0.622-0.388,1.151-0.867,1.573-1.429c0.432-0.568,0.767-1.217,0.996-1.925
		c0.232-0.713,0.352-1.451,0.352-2.191c0-0.78-0.152-1.567-0.456-2.338c-0.298-0.759-0.718-1.453-1.248-2.062
		c-0.544-0.62-1.192-1.12-1.927-1.485c-0.749-0.382-1.585-0.575-2.484-0.575h-7.412v20.021h2.705v-7.05h3.967l4.514,7.05h3.169
		l-4.81-7.516C264.829,34.025,265.185,33.857,265.519,33.655z M257.618,24.225h4.65c0.479,0,0.904,0.101,1.307,0.311
		c0.422,0.208,0.785,0.487,1.113,0.849c0.323,0.364,0.579,0.787,0.764,1.26c0.189,0.474,0.286,0.967,0.286,1.466
		s-0.083,0.994-0.247,1.475c-0.158,0.477-0.387,0.899-0.678,1.255c-0.293,0.359-0.639,0.643-1.057,0.868
		c-0.391,0.211-0.817,0.313-1.305,0.313h-4.836v-7.797H257.618z"/>
	<rect x="142.6" y="21.681" fill="#FFFFFF" width="2.705" height="19.991"/>
	<path fill="#FFFFFF" d="M194.313,31.832c0.513,0.602,1.13,1.088,1.83,1.443c0.732,0.383,1.552,0.576,2.436,0.576
		c0.853,0,1.648-0.178,2.367-0.531c0.724-0.355,1.35-0.825,1.859-1.396c0.528-0.587,0.938-1.256,1.215-1.984
		c0.296-0.743,0.445-1.536,0.445-2.357c0-0.772-0.139-1.542-0.412-2.289c-0.273-0.739-0.67-1.411-1.181-2
		c-0.518-0.588-1.139-1.063-1.844-1.411c-1.401-0.71-3.354-0.725-4.789-0.033c-0.712,0.346-1.337,0.812-1.857,1.386
		c-0.498,0.558-0.904,1.224-1.208,1.98c-0.291,0.753-0.438,1.55-0.438,2.366c0,0.763,0.139,1.522,0.413,2.255
		C193.416,30.567,193.808,31.238,194.313,31.832z M195.511,27.583c0-0.446,0.079-0.89,0.235-1.323
		c0.143-0.414,0.362-0.801,0.65-1.151c0.273-0.33,0.604-0.597,0.981-0.794c0.354-0.186,0.763-0.28,1.215-0.28
		c0.432,0,0.836,0.091,1.195,0.268c0.38,0.196,0.712,0.456,0.985,0.771c0.288,0.337,0.513,0.723,0.667,1.142
		c0.155,0.437,0.234,0.898,0.234,1.369c0,0.448-0.079,0.893-0.234,1.326c-0.149,0.422-0.368,0.812-0.648,1.157
		c-0.274,0.33-0.604,0.594-0.981,0.787c-0.66,0.346-1.724,0.352-2.399,0.006c-0.386-0.191-0.717-0.448-0.986-0.765
		c-0.285-0.331-0.51-0.719-0.671-1.157C195.593,28.515,195.511,28.059,195.511,27.583z"/>
	<path fill="#FFFFFF" d="M235.793,35.952c-0.273,0.552-0.627,1.042-1.049,1.456c-0.42,0.415-0.884,0.763-1.381,1.033
		c-0.488,0.267-1.007,0.465-1.539,0.592c-1.502,0.359-2.933,0.217-4.197-0.422c-0.82-0.41-1.547-0.969-2.153-1.658
		c-0.613-0.707-1.103-1.53-1.453-2.445c-0.353-0.913-0.528-1.891-0.528-2.908c0-0.904,0.15-1.816,0.449-2.71
		c0.291-0.883,0.729-1.69,1.303-2.397c0.563-0.698,1.27-1.27,2.096-1.7c1.228-0.639,2.802-0.812,4.338-0.475
		c0.48,0.106,0.949,0.277,1.43,0.523c0.465,0.248,0.904,0.569,1.307,0.954c0.4,0.391,0.74,0.872,1.008,1.431l0.318,0.66l2.295-1.304
		l-0.277-0.57c-0.607-1.299-1.562-2.378-2.838-3.208c-1.285-0.832-2.842-1.253-4.629-1.253c-1.51,0-2.875,0.302-4.057,0.897
		c-1.186,0.595-2.193,1.37-2.998,2.306c-0.805,0.937-1.426,2.012-1.847,3.197c-0.418,1.18-0.63,2.382-0.63,3.573
		c0,1.278,0.232,2.539,0.689,3.746c0.441,1.209,1.088,2.314,1.916,3.285c0.83,0.971,1.826,1.762,2.961,2.355
		c1.153,0.613,2.444,0.925,3.836,0.925c0.742,0,1.533-0.101,2.353-0.299c0.805-0.2,1.571-0.501,2.276-0.894
		c0.729-0.402,1.389-0.903,1.953-1.486c0.604-0.613,1.08-1.311,1.41-2.066l0.28-0.605l-2.337-1.135L235.793,35.952z"/>
	<path fill="#FFFFFF" d="M291.768,21.651l-8.51,20.021h2.934l2.571-6.154h7.995l2.6,6.154h2.922l-8.477-20.021H291.768z
		 M295.819,33.044h-6.137l3.088-7.318L295.819,33.044z"/>
	<path fill="#FFFFFF" d="M331.364,35.949c-0.285,0.56-0.641,1.05-1.057,1.457c-0.43,0.42-0.895,0.768-1.377,1.033
		c-0.504,0.271-1.01,0.463-1.549,0.593c-1.488,0.36-2.934,0.216-4.191-0.421c-0.828-0.413-1.555-0.973-2.154-1.66
		c-0.611-0.702-1.1-1.524-1.453-2.444c-0.354-0.926-0.533-1.905-0.533-2.909c0-0.901,0.152-1.812,0.451-2.709
		c0.291-0.875,0.729-1.682,1.299-2.396c0.561-0.689,1.268-1.262,2.1-1.703c1.229-0.641,2.801-0.816,4.338-0.475
		c0.484,0.107,0.969,0.283,1.434,0.523c0.443,0.234,0.881,0.555,1.301,0.954c0.391,0.373,0.73,0.856,1.016,1.436l0.32,0.653
		l2.283-1.302l-0.268-0.573c-0.619-1.305-1.576-2.384-2.844-3.207c-1.281-0.832-2.84-1.254-4.627-1.254
		c-1.506,0-2.871,0.303-4.062,0.9c-1.184,0.596-2.191,1.371-2.996,2.304c-0.803,0.941-1.424,2.016-1.842,3.196
		c-0.416,1.167-0.627,2.369-0.627,3.573c0,1.272,0.229,2.533,0.684,3.746c0.455,1.219,1.102,2.323,1.918,3.284
		c0.818,0.966,1.814,1.757,2.959,2.356c1.166,0.613,2.455,0.924,3.836,0.924c0.746,0,1.537-0.102,2.352-0.299
		c0.793-0.194,1.561-0.494,2.285-0.895c0.719-0.398,1.377-0.898,1.959-1.49c0.594-0.612,1.066-1.308,1.406-2.066l0.268-0.604
		l-2.326-1.136L331.364,35.949z"/>
	<polygon fill="#FFFFFF" points="361.524,21.651 355.36,31.376 349.297,21.768 349.223,21.651 346.112,21.651 354.024,34.084 
		354.024,41.672 356.702,41.672 356.702,34.139 364.608,21.651 	"/>
	<polygon fill="#FFFFFF" points="161.766,24.225 172.686,24.225 172.686,41.672 175.391,41.672 175.391,21.651 161.766,21.651 	"/>
	<rect x="192.442" y="39.093" fill="#FFFFFF" width="12.29" height="2.579"/>
</g>
</svg>
